<svg xmlns="http://www.w3.org/2000/svg" width="23" height="21" fill="none"><path fill="#EAEDF3" d="M6.65 9.625h1.9v1.75h-1.9v-1.75Zm0 3.5h1.9v1.75h-1.9v-1.75Zm3.799-3.5h1.9v1.75h-1.9v-1.75Zm0 3.5h1.9v1.75h-1.9v-1.75Zm3.8-3.5h1.9v1.75h-1.9v-1.75Zm0 3.5h1.9v1.75h-1.9v-1.75Z"/><path fill="#EAEDF3" d="M4.75 19.25h13.298c1.048 0 1.9-.785 1.9-1.75V5.25c0-.965-.852-1.75-1.9-1.75h-1.9V1.75h-1.9V3.5H8.55V1.75h-1.9V3.5h-1.9c-1.047 0-1.9.785-1.9 1.75V17.5c0 .965.853 1.75 1.9 1.75ZM18.048 7l.001 10.5H4.75V7h13.3Z"/></svg>