<svg xmlns="http://www.w3.org/2000/svg" width="26" height="26" fill="none"><g stroke="currentColor" stroke-linecap="round" stroke-linejoin="round" stroke-width="2" clip-path="url(#a)"><path d="M4.333 6.5A2.167 2.167 0 0 1 6.5 4.333h13A2.167 2.167 0 0 1 21.667 6.5v13a2.167 2.167 0 0 1-2.167 2.167h-13A2.167 2.167 0 0 1 4.333 19.5v-13ZM8.667 11.917v5.416M8.667 8.667v.01M13 17.333v-5.416"/><path d="M17.333 17.333v-3.25a2.166 2.166 0 1 0-4.333 0"/></g><defs><clipPath id="a"><path fill="#fff" d="M0 0h26v26H0z"/></clipPath></defs></svg>