<svg xmlns="http://www.w3.org/2000/svg" width="26" height="26" fill="none"><g clip-path="url(#a)"><path stroke="currentColor" stroke-linecap="round" stroke-linejoin="round" stroke-width="2" d="M9.75 20.583c-4.658 1.517-4.658-2.708-6.5-3.25m13 5.417v-3.792c0-1.083.108-1.516-.542-2.166 3.034-.325 5.959-1.517 5.959-6.5a4.983 4.983 0 0 0-1.409-3.467 4.55 4.55 0 0 0-.108-3.467s-1.192-.325-3.792 1.409a13.325 13.325 0 0 0-6.716 0C7.042 3.033 5.85 3.358 5.85 3.358a4.55 4.55 0 0 0-.108 3.467 4.983 4.983 0 0 0-1.409 3.467c0 4.983 2.925 6.175 5.959 6.5-.65.65-.65 1.3-.542 2.166v3.792"/></g><defs><clipPath id="a"><path fill="#fff" d="M0 0h26v26H0z"/></clipPath></defs></svg>